<svg xmlns="http://www.w3.org/2000/svg" version="1.1" xmlns:xlink="http://www.w3.org/1999/xlink" xmlns:svgjs="http://svgjs.com/svgjs" width="1440" height="560" preserveAspectRatio="none" viewBox="0 0 1440 560"><g mask="url(&quot;#SvgjsMask1655&quot;)" fill="none"><rect width="1440" height="560" x="0" y="0" fill="url(#SvgjsLinearGradient1656)"></rect><g transform="translate(0, 0)" stroke-linecap="round"><path d="M260 147.31 L260 412.69" stroke-width="15" stroke="rgba(134, 130, 131, 1)"></path><path d="M280 258.19 L280 301.81" stroke-width="15" stroke="#3a7cc3"></path><path d="M300 219.38 L300 340.62" stroke-width="15" stroke="#3a7cc3"></path><path d="M320 180.45 L320 379.55" stroke-width="15" stroke="rgba(134, 130, 131, 1)"></path><path d="M340 259.44 L340 300.56" stroke-width="15" stroke="#3a7cc3"></path><path d="M360 227.91 L360 332.1" stroke-width="15" stroke="#3a7cc3"></path><path d="M380 213.67 L380 346.33" stroke-width="15" stroke="rgba(134, 130, 131, 1)"></path><path d="M400 119.4 L400 440.6" stroke-width="15" stroke="rgba(134, 130, 131, 1)"></path><path d="M420 158.94 L420 401.06" stroke-width="15" stroke="rgba(134, 130, 131, 1)"></path><path d="M440 253.48 L440 306.52" stroke-width="15" stroke="rgba(134, 130, 131, 1)"></path><path d="M460 260.13 L460 299.87" stroke-width="15" stroke="rgba(134, 130, 131, 1)"></path><path d="M480 136.5 L480 423.5" stroke-width="15" stroke="#3a7cc3"></path><path d="M500 182.66 L500 377.34" stroke-width="15" stroke="#3a7cc3"></path><path d="M520 163.5 L520 396.5" stroke-width="15" stroke="#3a7cc3"></path><path d="M540 229.9 L540 330.11" stroke-width="15" stroke="#3a7cc3"></path><path d="M560 163.25 L560 396.75" stroke-width="15" stroke="#3a7cc3"></path><path d="M580 160.76 L580 399.24" stroke-width="15" stroke="rgba(134, 130, 131, 1)"></path><path d="M600 238.03 L600 321.98" stroke-width="15" stroke="#3a7cc3"></path><path d="M620 193.31 L620 366.69" stroke-width="15" stroke="rgba(134, 130, 131, 1)"></path><path d="M640 203.55 L640 356.45" stroke-width="15" stroke="#3a7cc3"></path><path d="M660 116.99 L660 443.01" stroke-width="15" stroke="rgba(134, 130, 131, 1)"></path><path d="M680 149.15 L680 410.85" stroke-width="15" stroke="#3a7cc3"></path><path d="M700 161.28 L700 398.73" stroke-width="15" stroke="rgba(134, 130, 131, 1)"></path><path d="M720 186.28 L720 373.72" stroke-width="15" stroke="rgba(134, 130, 131, 1)"></path><path d="M740 250.94 L740 309.06" stroke-width="15" stroke="rgba(134, 130, 131, 1)"></path><path d="M760 196.32 L760 363.68" stroke-width="15" stroke="#3a7cc3"></path><path d="M780 152.83 L780 407.17" stroke-width="15" stroke="rgba(134, 130, 131, 1)"></path><path d="M800 209.09 L800 350.91" stroke-width="15" stroke="#3a7cc3"></path><path d="M820 223.97 L820 336.02" stroke-width="15" stroke="#3a7cc3"></path><path d="M840 235.65 L840 324.35" stroke-width="15" stroke="#3a7cc3"></path><path d="M860 216.15 L860 343.86" stroke-width="15" stroke="#3a7cc3"></path><path d="M880 192.09 L880 367.9" stroke-width="15" stroke="#3a7cc3"></path><path d="M900 207.38 L900 352.63" stroke-width="15" stroke="rgba(134, 130, 131, 1)"></path><path d="M920 117.26 L920 442.74" stroke-width="15" stroke="rgba(134, 130, 131, 1)"></path><path d="M940 111 L940 449" stroke-width="15" stroke="rgba(134, 130, 131, 1)"></path><path d="M960 232.22 L960 327.78" stroke-width="15" stroke="#3a7cc3"></path><path d="M980 150.82 L980 409.18" stroke-width="15" stroke="rgba(134, 130, 131, 1)"></path><path d="M1000 126.3 L1000 433.7" stroke-width="15" stroke="rgba(134, 130, 131, 1)"></path><path d="M1020 207.94 L1020 352.06" stroke-width="15" stroke="#3a7cc3"></path><path d="M1040 227.69 L1040 332.31" stroke-width="15" stroke="#3a7cc3"></path><path d="M1060 143.17 L1060 416.83" stroke-width="15" stroke="rgba(134, 130, 131, 1)"></path><path d="M1080 248.84 L1080 311.17" stroke-width="15" stroke="#3a7cc3"></path><path d="M1100 193.98 L1100 366.02" stroke-width="15" stroke="#3a7cc3"></path><path d="M1120 116.52 L1120 443.48" stroke-width="15" stroke="#3a7cc3"></path><path d="M1140 166.06 L1140 393.94" stroke-width="15" stroke="rgba(134, 130, 131, 1)"></path><path d="M1160 202.24 L1160 357.76" stroke-width="15" stroke="#3a7cc3"></path><path d="M1180 122.17 L1180 437.83" stroke-width="15" stroke="rgba(134, 130, 131, 1)"></path></g></g><defs><mask id="SvgjsMask1655"><rect width="1440" height="560" fill="#ffffff"></rect></mask><linearGradient x1="15.28%" y1="-39.29%" x2="84.72%" y2="139.29%" gradientUnits="userSpaceOnUse" id="SvgjsLinearGradient1656"><stop stop-color="#0e2a47" offset="0"></stop><stop stop-color="rgba(88, 133, 192, 1)" offset="1"></stop></linearGradient></defs></svg>